HIERARCHY
ROOT Hips
{
	OFFSET 0.00 0.00 0.00
	CHANNELS 6 Xposition Yposition Zposition Xrotation Yrotation Zrotation
	JOINT Spine
	{
		OFFSET 0.00000 1.72418 2.58627
		CHANNELS 3 Xrotation Yrotation Zrotation
		JOINT Spine1
		{
			OFFSET 0.00000 0.59880 3.39597
			CHANNELS 3 Xrotation Yrotation Zrotation
			JOINT Spine2
			{
				OFFSET 0.00000 0.30055 3.43524
				CHANNELS 3 Xrotation Yrotation Zrotation
				JOINT Spine3
				{
					OFFSET 0.00000 0.00000 3.44836
					CHANNELS 3 Xrotation Yrotation Zrotation
					JOINT Neck
					{
						OFFSET 0.00000 -1.29313 9.05195
						CHANNELS 3 Xrotation Yrotation Zrotation
						JOINT Head
						{
							OFFSET 0.00000 -0.82335 4.66946
							CHANNELS 3 Xrotation Yrotation Zrotation
							End Site
							{
								OFFSET 0.00000 0.00001 5.58203
							}
						}
					}
					JOINT RightShoulder
					{
						OFFSET -1.18828 -1.98046 6.41673
						CHANNELS 3 Xrotation Yrotation Zrotation
						JOINT RightArm
						{
							OFFSET -5.90180 0.00000 0.00000
							CHANNELS 3 Xrotation Yrotation Zrotation
							JOINT RightForeArm
							{
								OFFSET -11.45951 0.00000 0.00000
								CHANNELS 3 Xrotation Yrotation Zrotation
								JOINT RightHand
								{
									OFFSET -10.63451 0.00000 0.00000
									CHANNELS 3 Xrotation Yrotation Zrotation
									JOINT RightHandEnd
									{
										OFFSET -2.86944 0.00000 0.00000
										CHANNELS 3 Xrotation Yrotation Zrotation
										End Site
										{
											OFFSET -2.86944 0.00000 0.00000
										}
									}
									JOINT RightHandThumb1
									{
										OFFSET -1.14778 -1.91296 -0.76518
										CHANNELS 3 Yrotation Xrotation Zrotation
										End Site
										{
											OFFSET -2.77167 -0.74267 0.00000
										}
									}
								}
							}
						}
					}
					JOINT LeftShoulder
					{
						OFFSET 1.18828 -1.98046 6.41673
						CHANNELS 3 Xrotation Yrotation Zrotation
						JOINT LeftArm
						{
							OFFSET 5.90180 0.00000 0.00000
							CHANNELS 3 Xrotation Yrotation Zrotation
							JOINT LeftForeArm
							{
								OFFSET 11.45951 0.00000 0.00000
								CHANNELS 3 Xrotation Yrotation Zrotation
								JOINT LeftHand
								{
									OFFSET 10.63451 0.00000 0.00000
									CHANNELS 3 Xrotation Yrotation Zrotation
									JOINT LeftHandEnd
									{
										OFFSET 2.86944 0.00000 0.00000
										CHANNELS 3 Xrotation Yrotation Zrotation
										End Site
										{
											OFFSET 2.86944 0.00000 0.00000
										}
									}
									JOINT LeftHandThumb1
									{
										OFFSET 1.14778 -1.91296 -0.76518
										CHANNELS 3 Yrotation Xrotation Zrotation
										End Site
										{
											OFFSET 2.77167 -0.74267 0.00000
										}
									}
								}
							}
						}
					}
				}
			}
		}
	}
	JOINT RightUpLeg
	{
		OFFSET -3.52524 0.00000 -1.02984
		CHANNELS 3 Xrotation Yrotation Zrotation
		JOINT RightLeg
		{
			OFFSET 0.00001 0.00000 -17.80965
			CHANNELS 3 Xrotation Yrotation Zrotation
			JOINT RightFoot
			{
				OFFSET 0.00001 0.00000 -17.00908
				CHANNELS 3 Xrotation Yrotation Zrotation
				JOINT RightToeBase
				{
					OFFSET 0.00000 -5.55853 -2.02314
					CHANNELS 3 Xrotation Yrotation Zrotation
					End Site
					{
						OFFSET 0.00000 -2.85188 -0.00000
					}
				}
			}
		}
	}
	JOINT LeftUpLeg
	{
		OFFSET 3.52524 0.00000 -1.02984
		CHANNELS 3 Xrotation Yrotation Zrotation
		JOINT LeftLeg
		{
			OFFSET 0.00001 0.00000 -17.80965
			CHANNELS 3 Xrotation Yrotation Zrotation
			JOINT LeftFoot
			{
				OFFSET 0.00001 0.00000 -17.00908
				CHANNELS 3 Xrotation Yrotation Zrotation
				JOINT LeftToeBase
				{
					OFFSET 0.00000 -5.55853 -2.02314
					CHANNELS 3 Xrotation Yrotation Zrotation
					End Site
					{
						OFFSET 0.00000 -2.85188 -0.00000
					}
				}
			}
		}
	}
}
MOTION
Frames: 12
Frame Time: 0.008342
 -1.9815 -22.2743 33.8289 -1.6749 2.9172 156.3459 1.2834 1.1487 0.5223 0.5246 1.6848 -0.3006 5.7463 -5.7140 -10.1608 1.6032 -1.3005 0.4386 3.2274 -8.9532 -15.2835 -3.7400 1.1994 -17.5847 -1.3928 -5.2532 5.0046 -58.1593 -30.9770 7.4642 -0.0000 0.0001 57.7442 7.8682 38.1771 -16.1127 0.0000 -0.0000 0.0000 -0.0000 -0.0000 0.0000 -9.5411 -18.0494 -34.8718 -7.9418 43.9309 -64.3211 -0.0000 -0.0000 -54.5408 -5.2161 -24.7358 3.4772 0.0000 0.0000 -0.0000 0.0000 0.0000 0.0000 5.3815 13.1426 15.6645 43.9770 0.0000 0.0000 -8.4512 -3.2674 17.1674 -43.8228 0.0000 -0.0000 -41.8584 -5.1228 7.8344 47.6310 0.0000 0.0000 -7.8003 -1.6989 7.3507 -2.4711 0.0000 -0.0000
 -2.0280 -21.9230 33.8498 -1.8617 2.9809 156.3532 1.2128 1.0791 0.5194 0.5039 1.6831 -0.2987 5.7592 -5.7269 -10.0979 1.5853 -1.3020 0.4472 3.1719 -8.9988 -15.2455 -3.8840 1.2604 -17.3442 -1.2554 -6.0057 4.9818 -58.5192 -31.0211 7.4547 -0.0000 0.0001 58.5411 7.6712 38.0480 -15.6769 0.0000 0.0000 0.0000 0.0000 -0.0000 0.0000 -9.2438 -17.8375 -34.5597 -7.3292 44.2557 -64.7144 -0.0000 -0.0000 -55.2173 -5.3690 -24.2551 3.4658 -0.0000 0.0000 0.0000 -0.0000 0.0000 0.0000 5.4447 13.2609 15.9008 43.8792 0.0000 0.0000 -6.5357 -3.1430 17.4637 -45.6752 0.0000 -0.0000 -41.7881 -4.8282 7.8801 48.1766 0.0000 0.0000 -8.5177 -2.1370 7.3920 -2.6702 0.0000 -0.0000
 -2.0677 -21.5827 33.8704 -2.0759 2.9881 156.4213 1.1609 0.9891 0.5092 0.4894 1.6908 -0.2929 5.7439 -5.7541 -10.0443 1.5674 -1.3066 0.4500 3.1175 -9.1103 -15.2094 -3.9812 1.3277 -17.1081 -1.1752 -6.7011 4.9490 -58.8321 -31.1340 7.4219 -0.0000 0.0001 59.1179 7.4716 37.7540 -15.4400 0.0000 0.0000 0.0000 0.0000 0.0000 0.0000 -8.9854 -17.6637 -34.2875 -6.6982 44.4805 -65.1478 -0.0000 -0.0000 -55.6681 -5.5545 -23.8337 3.4825 0.0000 -0.0000 0.0000 0.0000 0.0000 0.0000 5.4697 13.2843 16.0521 43.8310 0.0000 0.0000 -4.5353 -3.0976 17.7471 -47.5105 0.0000 -0.0000 -41.7398 -4.5814 7.8633 48.7064 0.0000 0.0000 -9.1793 -2.5286 7.3614 -2.7585 0.0000 -0.0000
 -2.1004 -21.2533 33.8899 -2.3158 2.9374 156.5530 1.1312 0.8896 0.5011 0.4689 1.6768 -0.2970 5.7135 -5.7702 -10.0140 1.5494 -1.3228 0.4697 3.0559 -9.2671 -15.1760 -4.0268 1.3956 -16.8889 -1.1288 -7.2973 4.9118 -59.1168 -31.3079 7.3025 -0.0000 0.0001 59.5137 7.3213 37.3730 -15.3922 -0.0000 0.0000 -0.0000 0.0000 -0.0000 -0.0000 -8.7674 -17.5415 -34.0580 -6.0468 44.6090 -65.6101 -0.0000 -0.0000 -55.9290 -5.6892 -23.5122 3.5184 -0.0000 -0.0000 -0.0000 0.0000 -0.0000 -0.0000 5.4581 13.2102 16.1263 43.8386 0.0000 0.0000 -2.4638 -3.1464 18.0078 -49.2562 0.0000 -0.0000 -41.7178 -4.3791 7.7734 49.2342 0.0000 0.0000 -9.8170 -2.8629 7.2861 -2.7524 0.0000 -0.0000
 -2.1271 -20.9341 33.9080 -2.5776 2.8479 156.7391 1.1049 0.7686 0.4908 0.4632 1.6956 -0.2940 5.6540 -5.8164 -9.9745 1.5315 -1.3316 0.4702 2.9887 -9.4577 -15.1395 -4.0249 1.4637 -16.6914 -1.0765 -7.7930 4.8968 -59.3755 -31.4974 7.0727 -0.0000 0.0001 59.7825 7.2275 36.9816 -15.4860 0.0000 -0.0000 0.0000 -0.0000 0.0000 -0.0000 -8.5671 -17.4804 -33.8624 -5.3878 44.6311 -66.0811 -0.0000 -0.0000 -56.0559 -5.7223 -23.3189 3.5574 0.0000 0.0000 -0.0000 0.0000 -0.0000 0.0000 5.4008 13.0605 16.1396 43.9117 0.0000 0.0000 -0.3399 -3.2960 18.2427 -50.8292 0.0000 -0.0000 -41.7214 -4.2052 7.6206 49.7597 0.0000 0.0000 -10.4545 -3.1356 7.1956 -2.6775 0.0000 -0.0000
 -2.1473 -20.6244 33.9247 -2.8497 2.7165 156.9748 1.0913 0.6416 0.4756 0.4610 1.6836 -0.2908 5.5809 -5.8307 -9.9291 1.5128 -1.3479 0.4763 2.9136 -9.6561 -15.1033 -3.9804 1.5252 -16.5237 -0.9910 -8.1719 4.9003 -59.6146 -31.6919 6.6968 -0.0000 0.0001 59.9962 7.1900 36.6267 -15.6538 -0.0000 0.0000 -0.0000 0.0000 0.0000 0.0000 -8.3756 -17.4632 -33.7044 -4.7194 44.5390 -66.5384 -0.0000 -0.0000 -56.1167 -5.6190 -23.2573 3.5909 -0.0000 -0.0000 0.0000 0.0000 0.0000 0.0000 5.3120 12.8336 16.1113 44.0513 0.0000 0.0000 1.8200 -3.5448 18.4374 -52.1385 0.0000 -0.0000 -41.7362 -4.0568 7.4036 50.2851 0.0000 0.0000 -11.1116 -3.3469 7.1100 -2.5674 0.0000 -0.0000
 -2.1611 -20.3230 33.9405 -3.1234 2.5494 157.2468 1.0973 0.4863 0.4669 0.4537 1.6990 -0.2920 5.4979 -5.8572 -9.8678 1.4949 -1.3603 0.4844 2.8283 -9.8383 -15.0625 -3.9030 1.5772 -16.3857 -0.8388 -8.4265 4.9277 -59.8392 -31.8827 6.1583 -0.0000 0.0001 60.2243 7.1900 36.3423 -15.8296 0.0000 0.0000 0.0000 0.0000 0.0000 0.0000 -8.1604 -17.4881 -33.5573 -4.0533 44.3432 -66.9781 -0.0000 -0.0000 -56.1735 -5.3829 -23.3181 3.5970 0.0000 -0.0000 -0.0000 0.0000 0.0000 0.0000 5.1951 12.5382 16.0647 44.2603 0.0000 0.0000 3.9984 -3.8817 18.5822 -53.0884 0.0000 -0.0000 -41.7484 -3.9284 7.1313 50.8033 0.0000 0.0000 -11.7967 -3.5030 7.0461 -2.4555 0.0000 -0.0000
 -2.1699 -20.0275 33.9561 -3.3756 2.3815 157.5438 1.1145 0.3537 0.4572 0.4485 1.6718 -0.2866 5.4133 -5.8237 -9.8004 1.4773 -1.3826 0.5081 2.7378 -9.9857 -15.0155 -3.8042 1.6151 -16.2750 -0.6007 -8.5799 4.9792 -60.0255 -32.0499 5.4761 -0.0000 0.0001 60.5242 7.1939 36.1492 -15.9566 -0.0000 0.0000 0.0000 -0.0000 0.0000 0.0000 -7.9147 -17.5249 -33.4227 -3.3825 44.0460 -67.3694 -0.0000 -0.0000 -56.2949 -5.0390 -23.4744 3.5671 0.0000 -0.0000 -0.0000 -0.0000 -0.0000 0.0000 5.0571 12.2235 16.0035 44.5441 0.0000 0.0000 6.1704 -4.2844 18.6811 -53.5794 0.0000 -0.0000 -41.7312 -3.7821 6.8298 51.2916 0.0000 0.0000 -12.5023 -3.6144 7.0205 -2.3709 0.0000 -0.0000
 -2.1730 -19.7384 33.9722 -3.6187 2.2011 157.8529 1.1353 0.2027 0.4482 0.4442 1.6522 -0.2777 5.3283 -5.7752 -9.6936 1.4569 -1.3987 0.5276 2.6481 -10.0835 -14.9571 -3.7003 1.6394 -16.1850 -0.2702 -8.6502 5.0540 -60.1475 -32.1890 4.6705 -0.0000 0.0001 60.9365 7.1732 36.0544 -15.9989 0.0000 0.0000 0.0000 0.0000 -0.0000 -0.0000 -7.6036 -17.5493 -33.2782 -2.7182 43.6346 -67.7090 -0.0000 -0.0000 -56.5189 -4.6405 -23.7033 3.4889 -0.0000 0.0000 0.0000 0.0000 -0.0000 0.0000 4.8852 11.8667 15.9541 44.9075 0.0000 0.0000 8.3197 -4.7303 18.7145 -53.5053 0.0000 -0.0000 -41.6908 -3.6383 6.4970 51.7497 0.0000 0.0000 -13.2215 -3.6915 7.0300 -2.3343 0.0000 -0.0000
 -2.1718 -19.4539 33.9894 -3.8377 2.0441 158.1619 1.1554 0.0658 0.4460 0.4404 1.6299 -0.2724 5.2471 -5.6972 -9.5403 1.4354 -1.4074 0.5393 2.5608 -10.1230 -14.8820 -3.6002 1.6501 -16.1042 0.1518 -8.6667 5.1439 -60.1777 -32.3099 3.7810 -0.0000 0.0001 61.4779 7.1046 36.0497 -15.9418 0.0000 -0.0000 -0.0000 0.0000 -0.0000 -0.0000 -7.2190 -17.5427 -33.1068 -2.0502 43.1294 -67.9911 -0.0000 -0.0000 -56.8771 -4.2345 -23.9584 3.3622 -0.0000 -0.0000 -0.0000 -0.0000 -0.0000 0.0000 4.6749 11.5137 15.9162 45.3601 0.0000 0.0000 10.4160 -5.1889 18.6822 -52.7501 0.0000 -0.0000 -41.6101 -3.4647 6.1611 52.1546 0.0000 0.0000 -13.9324 -3.7479 7.0776 -2.3556 0.0000 -0.0000
 -2.1665 -19.1737 34.0088 -4.0293 1.9139 158.4640 1.1776 -0.0578 0.4481 0.4346 1.5998 -0.2662 5.1725 -5.5802 -9.3496 1.4135 -1.4109 0.5530 2.4785 -10.1000 -14.7881 -3.5145 1.6488 -16.0209 0.6495 -8.6571 5.2369 -60.0857 -32.4258 2.8482 -0.0000 0.0001 62.1433 6.9744 36.1238 -15.7910 -0.0000 0.0000 0.0000 0.0000 -0.0000 0.0000 -6.7589 -17.4843 -32.9039 -1.3710 42.5437 -68.2077 -0.0000 -0.0000 -57.3827 -3.8709 -24.1957 3.1948 0.0000 -0.0000 -0.0000 -0.0000 -0.0000 0.0000 4.4252 11.1684 15.8898 45.9048 0.0000 0.0000 12.4338 -5.6329 18.5719 -51.1927 0.0000 -0.0000 -41.4815 -3.2602 5.8280 52.4980 0.0000 0.0000 -14.6165 -3.7951 7.1547 -2.4337 0.0000 -0.0000
 -2.1572 -18.8980 34.0305 -4.1968 1.8111 158.7543 1.1982 -0.1622 0.4553 0.4266 1.5414 -0.2710 5.1098 -5.4086 -9.1093 1.3880 -1.4116 0.5667 2.4044 -10.0136 -14.6715 -3.4475 1.6372 -15.9244 1.2044 -8.6480 5.3224 -59.8463 -32.5536 1.9163 -0.0000 0.0001 62.9058 6.7774 36.2660 -15.5674 -0.0000 0.0000 -0.0000 0.0000 -0.0000 0.0000 -6.2261 -17.3570 -32.6684 -0.6732 41.8867 -68.3506 -0.0000 -0.0000 -58.0311 -3.5972 -24.3747 2.9959 -0.0000 -0.0000 0.0000 -0.0000 0.0000 -0.0000 4.1276 10.8288 15.8719 46.5478 0.0000 0.0000 14.3405 -6.0396 18.3683 -48.7163 0.0000 -0.0000 -41.3079 -3.0296 5.5019 52.7777 0.0000 0.0000 -15.2567 -3.8414 7.2486 -2.5572 0.0000 -0.0000
